<svg xmlns="http://www.w3.org/2000/svg" viewBox="0 0 512 512"><path d="M497 60h-45V45c0-24.813-20.187-45-45-45H75C50.187 0 30 20.187 30 45v15H15C6.716 60 0 66.716 0 75s6.716 15 15 15h15v90H15c-8.284 0-15 6.716-15 15s6.716 15 15 15h15v92H15c-8.284 0-15 6.716-15 15s6.716 15 15 15h15v90H15c-8.284 0-15 6.716-15 15s6.716 15 15 15h15v15c0 24.813 20.187 45 45 45h332c24.813 0 45-20.187 45-45V362h45c8.284 0 15-6.716 15-15V75c0-8.284-6.716-15-15-15zM120 482H75c-8.271 0-15-6.729-15-15v-15h15c8.284 0 15-6.716 15-15s-6.716-15-15-15H60v-90h15c8.284 0 15-6.716 15-15s-6.716-15-15-15H60v-92h15c8.284 0 15-6.716 15-15s-6.716-15-15-15H60V90h15c8.284 0 15-6.716 15-15s-6.716-15-15-15H60V45c0-8.271 6.729-15 15-15h45v452zm302-15c0 8.271-6.729 15-15 15H150V30h257c8.271 0 15 6.729 15 15v422zm60-135h-30v-60h30v60zm0-90h-30v-62h30v62zm0-92h-30V90h30v60z"/><path d="M328.94 162.852C340.073 151.953 347 136.773 347 120c0-33.084-26.916-60-60-60s-60 26.916-60 60c0 16.773 6.927 31.953 18.06 42.852C225.127 176.347 212 199.169 212 225v62c0 8.284 6.716 15 15 15h120c8.284 0 15-6.716 15-15v-62c0-25.831-13.127-48.653-33.06-62.148zM287 90c16.542 0 30 13.458 30 30s-13.458 30-30 30-30-13.458-30-30 13.458-30 30-30zm45 182h-90v-47c0-24.813 20.187-45 45-45s45 20.187 45 45v47zM317 362h-60c-8.284 0-15 6.716-15 15s6.716 15 15 15h60c8.284 0 15-6.716 15-15s-6.716-15-15-15zM347 422H227c-8.284 0-15 6.716-15 15s6.716 15 15 15h120c8.284 0 15-6.716 15-15s-6.716-15-15-15z"/></svg>