<svg xmlns="http://www.w3.org/2000/svg" viewBox="0 0 50 50" width="50" height="50"><path data-name="Forma 1" d="M44.128 0H5.849A5.866 5.866 0 0 0-.01 5.859V44.14A5.865 5.865 0 0 0 5.849 50h38.279a5.866 5.866 0 0 0 5.86-5.86V5.858A5.867 5.867 0 0 0 44.128 0zm1.954 44.14a1.957 1.957 0 0 1-1.954 1.955H33V30.174h6.034l1-6.054H33v-4.2a2.88 2.88 0 0 1 2.93-2.93h4v-6.054h-4a8.982 8.982 0 0 0-8.982 9v4.184h-5.862v6.054h5.862v15.919H5.849a1.956 1.956 0 0 1-1.953-1.955V5.858a1.956 1.956 0 0 1 1.953-1.953h38.279a1.957 1.957 0 0 1 1.954 1.953v38.281z" fill="#fff" fill-rule="evenodd"/></svg>
