<svg xmlns="http://www.w3.org/2000/svg" viewBox="0 0 50 50" width="49.969" height="50"><path data-name="Forma 1" d="M34.359 0H15.61A15.627 15.627 0 0 0-.014 15.625v18.75A15.625 15.625 0 0 0 15.61 50h18.749a15.626 15.626 0 0 0 15.625-15.625V15.623A15.627 15.627 0 0 0 34.359 0zM45.3 34.373a10.95 10.95 0 0 1-10.937 10.938H15.61A10.95 10.95 0 0 1 4.673 34.373v-18.75A10.949 10.949 0 0 1 15.61 4.686h18.749A10.949 10.949 0 0 1 45.3 15.623v18.75zM24.985 12.5a12.5 12.5 0 1 0 12.5 12.5 12.5 12.5 0 0 0-12.5-12.5zm0 20.313A7.813 7.813 0 1 1 32.8 25a7.824 7.824 0 0 1-7.815 7.812zM38.422 9.9a1.666 1.666 0 1 1-1.666 1.665A1.665 1.665 0 0 1 38.422 9.9z" fill="#fff" fill-rule="evenodd"/></svg>
