<svg xmlns="http://www.w3.org/2000/svg" width="34" height="34.15" viewBox="0 0 34 34.15">
  <defs>
    <style>
      .cls-1 {
        fill: #fff;
        fill-rule: evenodd;
      }
    </style>
  </defs>
  <path id="Magic_wand" data-name="Magic wand" class="cls-1" d="M823.168,3218.49a0.882,0.882,0,0,1-.162-0.01,1.054,1.054,0,0,1-.833-0.69l-2.11-5.83-5.8-2.09a1.066,1.066,0,0,1-.3-1.84l4.852-3.83L819,3198a1.075,1.075,0,0,1,.576-0.92,1.043,1.043,0,0,1,1.076.07l5.109,3.46,5.912-1.74a1.066,1.066,0,0,1,1.316,1.32l-1.694,5.97,3.4,5.12a1.089,1.089,0,0,1,.07,1.09,1.06,1.06,0,0,1-.908.58l-6.09.22-3.768,4.91A1.066,1.066,0,0,1,823.168,3218.49Zm-6.38-9.98,4.457,1.61a1.068,1.068,0,0,1,.639.64l1.622,4.48,2.9-3.77a1.055,1.055,0,0,1,.8-0.41l4.733-.17-2.668-3.94a1.091,1.091,0,0,1-.144-0.9l1.3-4.58-4.545,1.33a1.041,1.041,0,0,1-.889-0.14l-3.928-2.66-0.14,4.77a1.1,1.1,0,0,1-.407.81Zm-14.89,22.61a1.054,1.054,0,0,1-.749-0.32,1.073,1.073,0,0,1,0-1.51l17.576-17.7a1.049,1.049,0,0,1,1.5,0,1.073,1.073,0,0,1,0,1.51l-17.577,17.7A1.054,1.054,0,0,1,801.9,3231.12Z" transform="translate(-800.875 -3196.97)"/>
</svg>
