<svg xmlns="http://www.w3.org/2000/svg" width="41.062" height="33.24" viewBox="0 0 41.062 33.24">
  <defs>
    <style>
      .cls-1 {
        fill: #fff;
        fill-rule: evenodd;
      }
    </style>
  </defs>
  <path id="Monitor" class="cls-1" d="M543.951,3201.44v21.72H508.028v-21.72h35.923m0-2.56H508.028a2.569,2.569,0,0,0-2.565,2.56v21.72a2.569,2.569,0,0,0,2.565,2.56h35.923a2.57,2.57,0,0,0,2.567-2.56v-21.72a2.57,2.57,0,0,0-2.567-2.56h0Zm-16.678,25.57v5.11h6.415a1.28,1.28,0,1,1,0,2.56h-15.4a1.28,1.28,0,1,1,0-2.56h6.415v-5.11h2.566Z" transform="translate(-505.469 -3198.88)"/>
</svg>
