<svg xmlns="http://www.w3.org/2000/svg" width="34.19" height="34.21" viewBox="0 0 34.19 34.21">
  <defs>
    <style>
      .cls-1 {
        fill: #fff;
        fill-rule: evenodd;
      }
    </style>
  </defs>
  <path id="params" class="cls-1" d="M1096.61,3207.34v-3.23a3.21,3.21,0,1,0-6.42,0v3.23a5.3,5.3,0,0,0,0,8.51v16.06a3.21,3.21,0,1,0,6.42,0v-16.06A5.315,5.315,0,0,0,1096.61,3207.34Zm-4.28-3.23a1.07,1.07,0,1,1,2.14,0v2.25a5.472,5.472,0,0,0-1.07-.11,5.317,5.317,0,0,0-1.07.11v-2.25Zm2.14,27.8a1.07,1.07,0,1,1-2.14,0v-15.08a5.317,5.317,0,0,0,1.07.11,5.472,5.472,0,0,0,1.07-.11v15.08Zm1.99-19.42c-0.02.06-.03,0.12-0.05,0.17a3.261,3.261,0,0,1-.4.79,0.038,0.038,0,0,0-.02.02,3.491,3.491,0,0,1-.66.67h-0.01a2.807,2.807,0,0,1-.85.46,2.962,2.962,0,0,1-2.14,0,2.858,2.858,0,0,1-.86-0.46h-0.01a3.174,3.174,0,0,1-.65-0.67l-0.02-.02a3.261,3.261,0,0,1-.4-0.79c-0.02-.05-0.04-0.11-0.06-0.17a2.931,2.931,0,0,1,0-1.79c0.02-.06.04-0.12,0.06-0.17a3.261,3.261,0,0,1,.4-0.79l0.02-.02a3.174,3.174,0,0,1,.65-0.67c0.01,0,.01,0,0.01-0.01a3.386,3.386,0,0,1,.86-0.46,3.108,3.108,0,0,1,2.14,0,3.325,3.325,0,0,1,.85.46,0.01,0.01,0,0,0,.01.01,3.491,3.491,0,0,1,.66.67,0.038,0.038,0,0,0,.02.02,3.261,3.261,0,0,1,.4.79c0.02,0.05.03,0.11,0.05,0.17A2.745,2.745,0,0,1,1096.46,3212.49Zm23.67-5.15v-3.23a3.21,3.21,0,0,0-6.42,0v3.23a5.3,5.3,0,0,0,0,8.51v16.06a3.21,3.21,0,0,0,6.42,0v-16.06A5.315,5.315,0,0,0,1120.13,3207.34Zm-4.28-3.23a1.07,1.07,0,1,1,2.14,0v2.25a5.259,5.259,0,0,0-2.14,0v-2.25Zm2.14,27.8a1.07,1.07,0,1,1-2.14,0v-15.08a5.259,5.259,0,0,0,2.14,0v15.08Zm1.99-19.42a0.845,0.845,0,0,1-.05.17,3.261,3.261,0,0,1-.4.79l-0.02.02a3.223,3.223,0,0,1-.66.67h-0.01a2.807,2.807,0,0,1-.85.46,2.962,2.962,0,0,1-2.14,0,2.694,2.694,0,0,1-.85-0.46h-0.01a2.993,2.993,0,0,1-.66-0.67l-0.02-.02a3.261,3.261,0,0,1-.4-0.79,0.845,0.845,0,0,1-.05-0.17,2.745,2.745,0,0,1,0-1.79,0.845,0.845,0,0,1,.05-0.17,3.261,3.261,0,0,1,.4-0.79l0.02-.02a2.993,2.993,0,0,1,.66-0.67l0.01-.01a3.166,3.166,0,0,1,.85-0.46,3.108,3.108,0,0,1,2.14,0,3.325,3.325,0,0,1,.85.46l0.01,0.01a3.223,3.223,0,0,1,.66.67l0.02,0.02a3.261,3.261,0,0,1,.4.79,0.845,0.845,0,0,1,.05.17A2.745,2.745,0,0,1,1119.98,3212.49Zm-11.61,7.68v-16.06a3.21,3.21,0,1,0-6.42,0v16.06a5.3,5.3,0,0,0,0,8.51v3.23a3.21,3.21,0,1,0,6.42,0v-3.23A5.315,5.315,0,0,0,1108.37,3220.17Zm-4.28-16.06a1.07,1.07,0,1,1,2.14,0v15.08a5.259,5.259,0,0,0-2.14,0v-15.08Zm2.14,27.8a1.07,1.07,0,1,1-2.14,0v-2.25a5.259,5.259,0,0,0,2.14,0v2.25Zm1.99-6.59a0.845,0.845,0,0,1-.05.17,3.261,3.261,0,0,1-.4.79l-0.02.02a3.223,3.223,0,0,1-.66.67h-0.01a2.807,2.807,0,0,1-.85.46,2.962,2.962,0,0,1-2.14,0,2.694,2.694,0,0,1-.85-0.46h-0.01a2.993,2.993,0,0,1-.66-0.67l-0.02-.02a3.261,3.261,0,0,1-.4-0.79,0.845,0.845,0,0,1-.05-0.17,2.927,2.927,0,0,1-.15-0.9,3.031,3.031,0,0,1,.15-0.9,0.983,0.983,0,0,1,.05-0.16,3.261,3.261,0,0,1,.4-0.79l0.02-.02a2.993,2.993,0,0,1,.66-0.67l0.01-.01a3.143,3.143,0,0,1,2.99-.46,3.325,3.325,0,0,1,.85.46l0.01,0.01a3.223,3.223,0,0,1,.66.67l0.02,0.02a3.261,3.261,0,0,1,.4.79,0.983,0.983,0,0,1,.05.16,3.031,3.031,0,0,1,.15.9A2.927,2.927,0,0,1,1108.22,3225.32Z" transform="translate(-1088.06 -3200.91)"/>
</svg>
