<svg xmlns="http://www.w3.org/2000/svg" width="38.41" height="38.12" viewBox="0 0 38.41 38.12">
  <defs>
    <style>
      .cls-1 {
        fill: #fff;
        fill-rule: evenodd;
      }
    </style>
  </defs>
  <path id="Plane" class="cls-1" d="M1410.54,3203.32h0a2.488,2.488,0,0,1,.81.12,3.77,3.77,0,0,1-1.3,3.79l-7.91,7.87-0.76.76,0.06,1.07c0.13,2.24.37,6.26,0.58,9.7,0.19,3.07.37,5.96,0.38,6.21a0.446,0.446,0,0,1-.15.4c-0.36.43-1.02,1.15-1.58,1.75-0.86-2.31-2.68-7.21-3.68-9.95l-1.3-3.53-2.66,2.66-4.91,4.69-0.69.68-0.02.96c-0.01.76-.01,2.14-0.01,3.35,0.01,0.85.01,1.61,0,2.04a0.413,0.413,0,0,1,.15.07c-0.1-.17-0.22-0.35-0.34-0.54-0.99-1.57-2.35-3.74-2.77-4.42l-0.31-.49-0.5-.3c-1.82-1.1-3.84-2.36-5.08-3.15,0.05-.03.08,0.1,0.11,0.09h0.08c0.39,0,1.03.01,1.75,0.02,0.94,0.01,2,.02,2.82.02h0.81l0.97-.03,0.68-.67,4.72-4.85,2.66-2.65-3.53-1.29c-2.65-.97-7.73-2.85-10.11-3.74,0.61-.56,1.35-1.22,1.78-1.58a0.569,0.569,0,0,1,.27-0.14h0.09c0.26,0.01,3.56.22,6.74,0.43,3.38,0.22,7.19.47,9.36,0.61l1.09,0.06,0.76-.76,7.92-7.87a4.292,4.292,0,0,1,3.02-1.39m0-2.39a6.711,6.711,0,0,0-4.72,2.09l-7.92,7.87c-4.45-.28-15.87-1.03-16.15-1.04-0.05,0-.11-0.01-0.19-0.01a2.756,2.756,0,0,0-1.8.7c-0.89.73-2.75,2.47-2.75,2.47a1.923,1.923,0,0,0-.62,1.51,1.427,1.427,0,0,0,.98,1.19c0.47,0.18,7.97,2.97,11.42,4.24l-4.72,4.85h-0.76c-1.44,0-3.68-.04-4.57-0.04h-0.28c-0.27.01-.84-0.13-2.32,1.11l-0.11.1a1.7,1.7,0,0,0-.56,1.18,1.281,1.281,0,0,0,.51,1.08c0.26,0.21,3.64,2.36,6.41,4.02,0.66,1.08,3.71,5.91,3.87,6.17a1.288,1.288,0,0,0,1.07.63h0.04a1.968,1.968,0,0,0,1.34-.65c1.26-1.46,1.09-2.07,1.09-2.32,0.02-.8-0.01-4.19.02-5.53l4.91-4.69c1.25,3.42,3.99,10.8,4.17,11.27a1.427,1.427,0,0,0,1.2.97c0.05,0,.11.01,0.16,0.01a2.018,2.018,0,0,0,1.37-.63s1.73-1.83,2.47-2.72a2.766,2.766,0,0,0,.7-2.02c-0.01-.24-0.7-11.54-0.96-15.95l7.91-7.87c2.81-2.79,2.36-6.15,1.32-7.19a3.7,3.7,0,0,0-2.53-.8h0Z" transform="translate(-1375.47 -3200.94)"/>
</svg>
