<svg version="1.0" xmlns="http://www.w3.org/2000/svg" width="533.333" height="562.667" viewBox="0 0 400 422"><path d="M66.8 1.8c-.7 1-3.4 3.3-6 5-5.5 3.8-10.4 10.7-11.8 16.5-.5 2.3-1 21.6-1 42.8 0 30.1-.3 38.9-1.3 39.7-.8.7-8.9 1.2-20.7 1.4-18.9.3-19.6.4-22.7 2.7L0 112.4v191.1l3.3 2.3c3.2 2.1 4.3 2.2 22.4 2.2 16.1 0 19.4.3 20.7 1.6 1.4 1.3 1.6 6.4 1.6 40.1v38.5l3.6 3.4 3.7 3.3-1.9 2.7c-5.4 7.5-5.5 7.9-5.1 12.4.2 2.5 1.5 6.2 2.8 8.2l2.4 3.7h17l2.7-4.3c3.9-6.1 3.8-11.4-.4-17.2-1.7-2.4-2.9-4.6-2.6-4.9 1-1 306.3-.6 306.6.5.2.5-.5 2.2-1.6 3.7-4.6 6.7-4.6 12.1 0 18.9 2.3 3.4 2.4 3.4 10.1 3.4 7.7 0 7.9-.1 11.3-3.6 3-3.3 3.4-4.3 3.4-9.3 0-5.2-.3-6-3.5-9.1-1.9-1.9-3.5-4-3.5-4.7 0-.8 1.6-2.3 3.5-3.4l3.5-2.1V160.4l-3.2-2.5-3.3-2.4-53.5-.5-53.5-.5-.2-20c-.2-11 0-20.5.5-21.1.4-.6 16.5-9.1 35.9-18.8 22.7-11.4 35.9-18.6 37.2-20.3 2.8-3.5 2.6-7.5-.4-11.1-5-6-5.3-5.9-40.1 11.7-17.5 8.8-32.1 15.8-32.6 15.5-.4-.3-.8-9.8-.8-21.2 0-18.9-.2-21-2-24-1.1-1.8-3.2-3.7-4.6-4.2-1.5-.6-31.3-1-77.8-1-57.1 0-75.5-.3-76.4-1.2-1.6-1.6-1.6-13.9.1-16.1 1.1-1.5 6-1.7 54.5-1.9l53.4-.3 2.4-2.8c3.1-3.6 3-6.8-.3-12.8L232.7 0h-82.3C72.2 0 68 .1 66.8 1.8zm36.9 20.4c.4.7 1 8.2 1.3 16.6.5 15.3.5 15.4 3.3 17.8l2.8 2.4H188c75 0 77 0 78 1.9 1.2 2.4 1.4 128.9.2 130.9-.7 1-20.4 1.3-99.2 1.3-54.1 0-98.7-.4-99.2-.9-1.4-1.4-1-162.7.4-165.7 2.1-4.6 5-5.4 20.5-5.5 10.3 0 14.4.3 15 1.2zM46.4 127.6c1.4 1.4 1.6 10 1.6 80.3 0 59.9-.3 79-1.2 79.9-.8.8-5.4 1.2-13.9 1.2-10.6 0-12.8-.3-13.3-1.6-.3-.9-.6-37.1-.6-80.4 0-74.1.1-79 1.8-79.9.9-.6 6.7-1.1 12.9-1.1 8.8 0 11.5.3 12.7 1.6zm333.4 47.6c1.7 1.7 1.7 197.9 0 199.6-1.7 1.7-90.9 1.7-92.6 0-1.7-1.7-1.7-197.9 0-199.6 1.7-1.7 90.9-1.7 92.6 0zm-113.6 39c1.3 2.2 1 34.2-.4 35.6-1.7 1.7-195.9 1.7-197.6 0-.8-.8-1.2-6.4-1.2-18.5 0-16.3.1-17.4 1.9-18.1 1.1-.4 45.7-.6 99.2-.5 77.5.2 97.4.5 98.1 1.5zm-.4 57c1.4 1.4 1.7 33.4.4 35.6-.7 1-20.6 1.2-99.1 1.2-54 0-98.7-.2-99.2-.5-1.4-.9-1.2-34.8.3-36.3 1.7-1.7 195.9-1.7 197.6 0zm.4 58c.4.7.8 10.8.8 22.5 0 17.9-.2 21.4-1.6 22.7-1.4 1.4-11.6 1.6-98 1.6-64.6 0-97.2-.3-98.5-1-1.8-1-1.9-2.3-1.9-23.6s.1-22.5 1.9-23.2c1.1-.4 45.7-.6 99.2-.5 76.7.2 97.4.6 98.1 1.5z"/><path d="M101.3 89c-4.7 1.9-6.3 6.5-6.3 18.5 0 11.3.7 13.9 5 17.2 1.1.9 10.9 1.2 38 1.3 40 0 39.5.1 42-5.9.8-1.9 1.1-6.9.8-14.6l-.3-11.7-3.3-2.9L174 88l-35.3.1c-19.3 0-36.2.4-37.4.9zM221 90.2c-2.5 1.3-5.9 4.2-7.7 6.6-2.9 3.9-3.3 5.1-3.3 10.7s.4 6.8 3.3 10.6c4.7 6.1 8.9 8.1 16.3 7.7 7-.4 11.6-3.2 15.4-9.3 4.6-7.5 3-16.9-4-23.2-6.2-5.5-13-6.6-20-3.1zM313 193.7c-1.4.3-3.7 1.6-5.2 3.1-5.2 4.8-3.1 12.5 4 15.3 3.3 1.3 39.4 1.1 42.9-.2 6.8-2.5 9.3-8.6 5.7-13.8-3.1-4.4-6.9-5.1-26.6-5-10.1.1-19.4.4-20.8.6z"/></svg>