<svg viewBox="0 0 512 512" height="512" width="512" xmlns="http://www.w3.org/2000/svg"><path d="M461.925 0H267.852c-23.476 0-42.575 19.1-42.575 42.575v107.329c0 5.654 1.117 11.05 3.128 15.99h-88.999v-9.598c0-15.321-12.321-27.811-27.574-28.103V10c0-5.523-4.477-10-10-10s-10 4.477-10 10v118.194c-15.253.291-27.575 12.781-27.575 28.103v9.598H53.606c-25.423 0-46.106 20.684-46.106 46.107v253.893C7.5 491.316 28.183 512 53.606 512h144.688c5.523 0 10-4.478 10-10s-4.477-10-10-10H53.606C39.211 492 27.5 480.289 27.5 465.894V212.001c0-14.396 11.711-26.107 26.106-26.107H245.15a42.31 42.31 0 0 0 22.702 6.585h9.954l5.8 15.531H72.304c-5.523 0-10 4.478-10 10v41.447c0 5.522 4.477 10 10 10h352.392c5.523 0 10-4.478 10-10V218.01c0-5.522-4.477-10-10-10H324.86l19.635-15.531h116.233c5.593 4.961 8.772 11.994 8.772 19.521v253.893c0 14.396-11.711 26.106-26.106 26.106H288.707c-5.523 0-10 4.478-10 10s4.477 10 10 10h154.688c25.423 0 46.106-20.684 46.106-46.106V212.001c0-8.922-2.531-17.446-7.177-24.738 13.203-7.238 22.177-21.27 22.177-37.359V42.575C504.5 19.1 485.401 0 461.925 0zm-47.229 249.458H82.304v-21.447h332.392zM84.257 165.895v-9.598c0-4.476 3.641-8.116 8.117-8.116h18.916c4.476 0 8.117 3.641 8.117 8.116v9.598zM484.5 149.904c0 12.448-10.127 22.575-22.575 22.575H341.019a10 10 0 0 0-6.204 2.157l-32.672 25.843-8.028-21.498a10 10 0 0 0-9.368-6.502h-16.895c-12.448 0-22.575-10.127-22.575-22.575V42.575c0-12.448 10.127-22.575 22.575-22.575h194.073c12.448 0 22.575 10.127 22.575 22.575z"/><path d="M334.318 55.584a11.698 11.698 0 0 0-10.965-7.546h-.012a11.698 11.698 0 0 0-10.945 7.522l-28.844 75.721c-1.966 5.161.625 10.939 5.786 12.904a9.982 9.982 0 0 0 3.558.658c4.03 0 7.827-2.454 9.347-6.443l4.73-12.418h32.539l4.677 12.39c1.951 5.167 7.722 7.775 12.887 5.824 5.167-1.95 7.775-7.72 5.825-12.887zm-19.727 50.396l8.726-22.907 8.646 22.907zM385.816 143.703a10 10 0 0 1-10-9.964c-.001-.271-.097-27.133-.097-37.384 0-8.497-.054-37.164-.054-37.164a10 10 0 0 1 10-10.018h21.112c23.986 0 40.102 18.994 40.102 47.266 0 26.894-16.532 46.702-39.31 47.099-6.018.105-21.077.163-21.715.166l-.038-.001zm9.867-74.53c.016 9.13.036 21.961.036 27.183 0 6.197.035 18.51.064 27.296 4.237-.027 8.796-.064 11.437-.11 13.581-.237 19.66-13.783 19.66-27.103 0-6.396-1.45-27.266-20.102-27.266zM268.029 312.757h-39.058c-5.523 0-10-4.478-10-10s4.477-10 10-10h39.058c5.523 0 10 4.478 10 10s-4.477 10-10 10zM350.123 417.904c-22.372 0-40.573-18.201-40.573-40.573s18.201-40.573 40.573-40.573 40.573 18.201 40.573 40.573-18.201 40.573-40.573 40.573zm0-61.146c-11.344 0-20.573 9.229-20.573 20.573s9.229 20.573 20.573 20.573 20.573-9.229 20.573-20.573-9.229-20.573-20.573-20.573z"/><path d="M350.123 461.903c-46.634 0-84.573-37.939-84.573-84.573s37.94-84.573 84.573-84.573 84.573 37.939 84.573 84.573-37.94 84.573-84.573 84.573zm0-149.146c-35.606 0-64.573 28.968-64.573 64.573s28.967 64.573 64.573 64.573 64.573-28.968 64.573-64.573-28.968-64.573-64.573-64.573zM146.877 417.904c-22.372 0-40.574-18.201-40.574-40.573s18.201-40.573 40.574-40.573c22.372 0 40.573 18.201 40.573 40.573s-18.201 40.573-40.573 40.573zm0-61.146c-11.344 0-20.574 9.229-20.574 20.573s9.229 20.573 20.574 20.573c11.344 0 20.573-9.229 20.573-20.573s-9.229-20.573-20.573-20.573z"/><path d="M146.877 461.903c-46.634 0-84.573-37.939-84.573-84.573s37.939-84.573 84.573-84.573 84.573 37.939 84.573 84.573-37.939 84.573-84.573 84.573zm0-149.146c-35.606 0-64.573 28.968-64.573 64.573s28.967 64.573 64.573 64.573 64.573-28.968 64.573-64.573c.001-35.605-28.967-64.573-64.573-64.573zM243.68 512c-4.176 0-7.985-2.692-9.402-6.615-1.378-3.814-.246-8.228 2.809-10.902 3.286-2.876 8.167-3.25 11.876-.97 3.55 2.183 5.38 6.528 4.492 10.596-.991 4.542-5.119 7.891-9.775 7.891z"/></svg>
