<svg height="496pt" viewBox="0 0 496 496" width="496pt" xmlns="http://www.w3.org/2000/svg"><path d="M112 160v64h16v-64h32v-16h-32c-8.824 0-16 7.176-16 16zm0 0M112 240h16v16h-16zm0 0M112 272h16v16h-16zm0 0M352 288h16v16h-16zm0 0M352 320h16v16h-16zm0 0M352 256h16v16h-16zm0 0M32 272h16v16H32zm0 0M32 336h16v16H32zm0 0M32 304h16v16H32zm0 0"/><path d="M456 0H216c-22.055 0-40 17.945-40 40v72h-56c-22.055 0-40 17.945-40 40v72H40c-22.055 0-40 17.945-40 40v192c0 22.055 17.945 40 40 40h240c22.055 0 40-17.945 40-40v-72h40c22.055 0 40-17.945 40-40v-72h56c22.055 0 40-17.945 40-40V40c0-22.055-17.945-40-40-40zM304 456c0 13.23-10.77 24-24 24H40c-13.23 0-24-10.77-24-24V264c0-13.23 10.77-24 24-24h40v104c0 22.055 17.945 40 40 40h184zm80-112c0 13.23-10.77 24-24 24H120c-13.23 0-24-10.77-24-24V152c0-13.23 10.77-24 24-24h240c13.23 0 24 10.77 24 24zm64-280H336V48h112zm32 168c0 13.23-10.77 24-24 24h-56V152c0-22.055-17.945-40-40-40h-24V80h112v81.473c-2.512-.899-5.184-1.473-8-1.473-13.23 0-24 10.77-24 24s10.77 24 24 24 24-10.77 24-24V32H320v80H192V40c0-13.23 10.77-24 24-24h240c13.23 0 24 10.77 24 24zm-32-48c0 4.414-3.586 8-8 8s-8-3.586-8-8 3.586-8 8-8 8 3.586 8 8zm0 0"/><path d="M176 324.945L329.887 248 176 171.055zm16-128L294.113 248 192 299.055zm0 0M120 416H72v16H32v16h40v16h48v-16h168v-16H120zm-16 32H88v-16h16zm0 0M208 32h96v16h-96zm0 0M208 64h96v16h-96zm0 0"/></svg>